<mxfile host="65bd71144e">
    <diagram id="xE1C860Rz4oGugC2tapa" name="Architecture Overview">
        <mxGraphModel dx="1023" dy="779" grid="1" gridSize="10" guides="1" tooltips="1" connect="1" arrows="1" fold="1" page="1" pageScale="1" pageWidth="850" pageHeight="1100" math="0" shadow="0">
            <root>
                <mxCell id="0"/>
                <mxCell id="1" parent="0"/>
                <mxCell id="3" value="E-Commerce" style="text;html=1;strokeColor=none;fillColor=none;align=center;verticalAlign=middle;whiteSpace=wrap;rounded=0;" parent="1" vertex="1">
                    <mxGeometry x="35" y="71" width="80" height="30" as="geometry"/>
                </mxCell>
                <mxCell id="25" value="" style="rounded=0;whiteSpace=wrap;html=1;fillColor=none;" parent="1" vertex="1">
                    <mxGeometry x="35" y="101" width="925" height="470" as="geometry"/>
                </mxCell>
                <mxCell id="4" value="" style="rounded=0;whiteSpace=wrap;html=1;fillColor=none;" parent="1" vertex="1">
                    <mxGeometry x="55" y="131" width="195" height="159" as="geometry"/>
                </mxCell>
                <mxCell id="5" value="Auth" style="text;html=1;strokeColor=none;fillColor=none;align=center;verticalAlign=middle;whiteSpace=wrap;rounded=0;" parent="1" vertex="1">
                    <mxGeometry x="55" y="101" width="50" height="30" as="geometry"/>
                </mxCell>
                <mxCell id="6" value="User" style="rounded=0;whiteSpace=wrap;html=1;fillColor=none;" parent="1" vertex="1">
                    <mxGeometry x="65" y="141" width="90" height="20" as="geometry"/>
                </mxCell>
                <mxCell id="20" value="" style="rounded=0;whiteSpace=wrap;html=1;fillColor=none;" parent="1" vertex="1">
                    <mxGeometry x="395" y="130" width="210" height="160" as="geometry"/>
                </mxCell>
                <mxCell id="21" value="Order" style="text;html=1;strokeColor=none;fillColor=none;align=center;verticalAlign=middle;whiteSpace=wrap;rounded=0;" parent="1" vertex="1">
                    <mxGeometry x="390" y="100" width="60" height="30" as="geometry"/>
                </mxCell>
                <mxCell id="23" value="" style="rounded=0;whiteSpace=wrap;html=1;fillColor=none;" parent="1" vertex="1">
                    <mxGeometry x="55" y="371" width="200" height="160" as="geometry"/>
                </mxCell>
                <mxCell id="27" value="" style="rounded=0;whiteSpace=wrap;html=1;fillColor=none;" parent="1" vertex="1">
                    <mxGeometry x="730" y="126.5" width="210" height="160" as="geometry"/>
                </mxCell>
                <mxCell id="29" value="Payment" style="text;html=1;strokeColor=none;fillColor=none;align=center;verticalAlign=middle;whiteSpace=wrap;rounded=0;" parent="1" vertex="1">
                    <mxGeometry x="730" y="96.5" width="60" height="30" as="geometry"/>
                </mxCell>
                <mxCell id="30" value="Products" style="text;html=1;strokeColor=none;fillColor=none;align=center;verticalAlign=middle;whiteSpace=wrap;rounded=0;" parent="1" vertex="1">
                    <mxGeometry x="55" y="341" width="60" height="30" as="geometry"/>
                </mxCell>
                <mxCell id="35" style="edgeStyle=none;html=1;entryX=0.394;entryY=0.004;entryDx=0;entryDy=0;entryPerimeter=0;" parent="1" source="33" target="27" edge="1">
                    <mxGeometry relative="1" as="geometry"/>
                </mxCell>
                <mxCell id="33" value="" style="shape=cylinder3;whiteSpace=wrap;html=1;boundedLbl=1;backgroundOutline=1;size=15;fillColor=none;" parent="1" vertex="1">
                    <mxGeometry x="784" y="15.5" width="60" height="70" as="geometry"/>
                </mxCell>
                <mxCell id="37" style="edgeStyle=none;html=1;entryX=0.567;entryY=0;entryDx=0;entryDy=0;entryPerimeter=0;" parent="1" source="36" target="20" edge="1">
                    <mxGeometry relative="1" as="geometry"/>
                </mxCell>
                <mxCell id="36" value="DDB" style="shape=cylinder3;whiteSpace=wrap;html=1;boundedLbl=1;backgroundOutline=1;size=15;fillColor=none;" parent="1" vertex="1">
                    <mxGeometry x="483" y="20" width="60" height="70" as="geometry"/>
                </mxCell>
                <mxCell id="56" style="edgeStyle=none;html=1;entryX=0.662;entryY=0;entryDx=0;entryDy=0;entryPerimeter=0;fontSize=18;fontColor=#FFFFFF;" parent="1" source="38" target="4" edge="1">
                    <mxGeometry relative="1" as="geometry"/>
                </mxCell>
                <mxCell id="38" value="DDB" style="shape=cylinder3;whiteSpace=wrap;html=1;boundedLbl=1;backgroundOutline=1;size=15;fillColor=none;" parent="1" vertex="1">
                    <mxGeometry x="155" y="20" width="60" height="70" as="geometry"/>
                </mxCell>
                <mxCell id="49" style="edgeStyle=none;html=1;entryX=0.47;entryY=1.019;entryDx=0;entryDy=0;entryPerimeter=0;" parent="1" source="48" target="23" edge="1">
                    <mxGeometry relative="1" as="geometry"/>
                </mxCell>
                <mxCell id="48" value="Postgres" style="shape=cylinder3;whiteSpace=wrap;html=1;boundedLbl=1;backgroundOutline=1;size=15;fillColor=none;" parent="1" vertex="1">
                    <mxGeometry x="115" y="581" width="70" height="70" as="geometry"/>
                </mxCell>
                <mxCell id="50" value="EVENT BUS - NATS.IO (Embedded)" style="rounded=0;whiteSpace=wrap;html=1;fillColor=none;fontColor=default;labelBackgroundColor=none;labelBorderColor=none;" parent="1" vertex="1">
                    <mxGeometry x="55" y="301" width="885" height="29" as="geometry"/>
                </mxCell>
                <mxCell id="52" value="&lt;h1&gt;Notes:&lt;/h1&gt;&lt;div&gt;&lt;ol&gt;&lt;li&gt;We're using a modular monolith, so bounded contexts should be well defined and respected at &lt;b&gt;all &lt;/b&gt;costs&lt;/li&gt;&lt;li&gt;We will deal with &quot;distribucted transactions&quot; by using SAGA pattern.&lt;/li&gt;&lt;li&gt;Our application acknlowdges at-least-once delivery thus the need to implement dedup / idempotency - Hopefully treated by NATS&lt;/li&gt;&lt;li&gt;Each module will hopefully use Hexagonal Arch (But may not, depending on it's size I may keep it in a single main.go if I really want to).&lt;/li&gt;&lt;li&gt;It is not thought how we'll deal with concurrency (out of order / in order processing given that even in-order may be done on goroutines).&lt;/li&gt;&lt;li&gt;Redecard will be used as payment gateway :)&lt;/li&gt;&lt;/ol&gt;&lt;/div&gt;" style="text;html=1;strokeColor=none;fillColor=none;spacing=5;spacingTop=-20;whiteSpace=wrap;overflow=hidden;rounded=0;fontSize=18;" parent="1" vertex="1">
                    <mxGeometry x="35" y="700" width="775" height="340" as="geometry"/>
                </mxCell>
                <mxCell id="58" value="common" style="rounded=0;whiteSpace=wrap;html=1;fillColor=none;" parent="1" vertex="1">
                    <mxGeometry x="623" y="150" width="90" height="20" as="geometry"/>
                </mxCell>
                <mxCell id="59" value="Keycloak" style="rounded=0;whiteSpace=wrap;html=1;fillColor=none;" parent="1" vertex="1">
                    <mxGeometry x="77.5" y="180" width="145" height="89" as="geometry"/>
                </mxCell>
                <mxCell id="60" value="Customer" style="rounded=0;whiteSpace=wrap;html=1;fillColor=none;" parent="1" vertex="1">
                    <mxGeometry x="410" y="141" width="90" height="20" as="geometry"/>
                </mxCell>
                <mxCell id="61" value="User" style="rounded=0;whiteSpace=wrap;html=1;fillColor=none;" parent="1" vertex="1">
                    <mxGeometry x="276" y="150" width="90" height="20" as="geometry"/>
                </mxCell>
                <mxCell id="65" value="Buyer" style="rounded=0;whiteSpace=wrap;html=1;fillColor=none;" parent="1" vertex="1">
                    <mxGeometry x="740" y="141" width="90" height="20" as="geometry"/>
                </mxCell>
                <mxCell id="66" value="" style="rounded=0;whiteSpace=wrap;html=1;fillColor=none;" parent="1" vertex="1">
                    <mxGeometry x="290" y="371" width="200" height="160" as="geometry"/>
                </mxCell>
                <mxCell id="67" value="Cart" style="text;html=1;strokeColor=none;fillColor=none;align=center;verticalAlign=middle;whiteSpace=wrap;rounded=0;" parent="1" vertex="1">
                    <mxGeometry x="290" y="341" width="60" height="30" as="geometry"/>
                </mxCell>
                <mxCell id="68" style="edgeStyle=none;html=1;entryX=0.47;entryY=1.019;entryDx=0;entryDy=0;entryPerimeter=0;" parent="1" source="69" target="66" edge="1">
                    <mxGeometry relative="1" as="geometry"/>
                </mxCell>
                <mxCell id="69" value="Postgres" style="shape=cylinder3;whiteSpace=wrap;html=1;boundedLbl=1;backgroundOutline=1;size=15;fillColor=none;" parent="1" vertex="1">
                    <mxGeometry x="350" y="581" width="70" height="70" as="geometry"/>
                </mxCell>
                <mxCell id="70" value="vo: cupom" style="text;html=1;strokeColor=none;fillColor=none;align=center;verticalAlign=middle;whiteSpace=wrap;rounded=0;" parent="1" vertex="1">
                    <mxGeometry x="306" y="380" width="60" height="30" as="geometry"/>
                </mxCell>
            </root>
        </mxGraphModel>
    </diagram>
    <diagram id="KAdzTB_DEehnYHPMhaGk" name="Order">
        <mxGraphModel dx="1023" dy="779" grid="1" gridSize="10" guides="1" tooltips="1" connect="1" arrows="1" fold="1" page="1" pageScale="1" pageWidth="850" pageHeight="1100" math="0" shadow="0">
            <root>
                <mxCell id="0"/>
                <mxCell id="1" parent="0"/>
                <mxCell id="NEcNuCVIkw7OjsjBTimr-1" value="Order" style="swimlane;whiteSpace=wrap;html=1;" parent="1" vertex="1">
                    <mxGeometry x="70" y="70" width="720" height="540" as="geometry"/>
                </mxCell>
                <mxCell id="NEcNuCVIkw7OjsjBTimr-2" value="Purpose" style="rounded=0;whiteSpace=wrap;html=1;" parent="NEcNuCVIkw7OjsjBTimr-1" vertex="1">
                    <mxGeometry y="20" width="720" height="60" as="geometry"/>
                </mxCell>
                <mxCell id="NEcNuCVIkw7OjsjBTimr-8" value="&lt;blockquote style=&quot;margin: 0 0 0 40px; border: none; padding: 0px;&quot;&gt;&lt;font color=&quot;#fffefe&quot;&gt;&lt;span style=&quot;background-color: initial;&quot;&gt;ORDER_PLACED&lt;br&gt;&lt;/span&gt;&lt;span style=&quot;background-color: initial;&quot;&gt;ORDER_PENDING&lt;br&gt;&lt;/span&gt;&lt;span style=&quot;background-color: initial;&quot;&gt;ORDER_CONFIRMED&lt;br&gt;&lt;/span&gt;&lt;span style=&quot;background-color: initial;&quot;&gt;ORDER_REFUSED&lt;br&gt;&lt;/span&gt;&lt;span style=&quot;background-color: initial;&quot;&gt;ORDER_CANCELLED&lt;/span&gt;&lt;/font&gt;&lt;/blockquote&gt;" style="rounded=0;whiteSpace=wrap;html=1;align=left;" parent="NEcNuCVIkw7OjsjBTimr-1" vertex="1">
                    <mxGeometry x="280" y="80" width="440" height="460" as="geometry"/>
                </mxCell>
                <mxCell id="NEcNuCVIkw7OjsjBTimr-6" value="&lt;ul&gt;&lt;li&gt;Address&lt;/li&gt;&lt;li&gt;PaymentAmount&lt;/li&gt;&lt;/ul&gt;" style="rounded=0;whiteSpace=wrap;html=1;align=left;" parent="NEcNuCVIkw7OjsjBTimr-1" vertex="1">
                    <mxGeometry y="400" width="280" height="140" as="geometry"/>
                </mxCell>
                <mxCell id="lz79MSeleSsVwzCMMc6W-1" value="&lt;ul&gt;&lt;li&gt;Order (Aggregate Root)&lt;/li&gt;&lt;li&gt;Item&lt;/li&gt;&lt;/ul&gt;" style="rounded=0;whiteSpace=wrap;html=1;align=left;" parent="NEcNuCVIkw7OjsjBTimr-1" vertex="1">
                    <mxGeometry y="80" width="280" height="320" as="geometry"/>
                </mxCell>
                <mxCell id="lz79MSeleSsVwzCMMc6W-3" value="VO's" style="text;html=1;strokeColor=none;fillColor=none;align=center;verticalAlign=middle;whiteSpace=wrap;rounded=0;" parent="NEcNuCVIkw7OjsjBTimr-1" vertex="1">
                    <mxGeometry x="110" y="400" width="60" height="30" as="geometry"/>
                </mxCell>
                <mxCell id="lz79MSeleSsVwzCMMc6W-4" value="Entities" style="text;html=1;strokeColor=none;fillColor=none;align=center;verticalAlign=middle;whiteSpace=wrap;rounded=0;" parent="NEcNuCVIkw7OjsjBTimr-1" vertex="1">
                    <mxGeometry x="110" y="80" width="60" height="30" as="geometry"/>
                </mxCell>
            </root>
        </mxGraphModel>
    </diagram>
    <diagram name="Copy of Order" id="x1vPUKLpuUCheEow0_rX">
        <mxGraphModel dx="1023" dy="779" grid="1" gridSize="10" guides="1" tooltips="1" connect="1" arrows="1" fold="1" page="1" pageScale="1" pageWidth="850" pageHeight="1100" math="0" shadow="0">
            <root>
                <mxCell id="65udlxbwhHrKZSYzAluk-0"/>
                <mxCell id="65udlxbwhHrKZSYzAluk-1" parent="65udlxbwhHrKZSYzAluk-0"/>
                <mxCell id="65udlxbwhHrKZSYzAluk-2" value="Payment" style="swimlane;whiteSpace=wrap;html=1;startSize=23;" parent="65udlxbwhHrKZSYzAluk-1" vertex="1">
                    <mxGeometry x="70" y="70" width="720" height="540" as="geometry"/>
                </mxCell>
                <mxCell id="65udlxbwhHrKZSYzAluk-3" value="Purpose" style="rounded=0;whiteSpace=wrap;html=1;" parent="65udlxbwhHrKZSYzAluk-2" vertex="1">
                    <mxGeometry y="20" width="720" height="60" as="geometry"/>
                </mxCell>
                <mxCell id="65udlxbwhHrKZSYzAluk-4" value="&lt;blockquote style=&quot;margin: 0 0 0 40px; border: none; padding: 0px;&quot;&gt;&lt;font color=&quot;#fffefe&quot;&gt;&lt;span style=&quot;background-color: initial;&quot;&gt;ORDER_PLACED&lt;br&gt;&lt;/span&gt;&lt;span style=&quot;background-color: initial;&quot;&gt;ORDER_PENDING&lt;br&gt;&lt;/span&gt;&lt;span style=&quot;background-color: initial;&quot;&gt;ORDER_CONFIRMED&lt;br&gt;&lt;/span&gt;&lt;span style=&quot;background-color: initial;&quot;&gt;ORDER_REFUSED&lt;br&gt;&lt;/span&gt;&lt;span style=&quot;background-color: initial;&quot;&gt;ORDER_CANCELLED&lt;/span&gt;&lt;/font&gt;&lt;/blockquote&gt;" style="rounded=0;whiteSpace=wrap;html=1;align=left;" parent="65udlxbwhHrKZSYzAluk-2" vertex="1">
                    <mxGeometry x="280" y="80" width="440" height="460" as="geometry"/>
                </mxCell>
                <mxCell id="65udlxbwhHrKZSYzAluk-5" value="&lt;ul&gt;&lt;li&gt;Address&lt;/li&gt;&lt;li&gt;PaymentAmount&lt;/li&gt;&lt;/ul&gt;" style="rounded=0;whiteSpace=wrap;html=1;align=left;" parent="65udlxbwhHrKZSYzAluk-2" vertex="1">
                    <mxGeometry y="400" width="280" height="140" as="geometry"/>
                </mxCell>
                <mxCell id="65udlxbwhHrKZSYzAluk-6" value="&lt;ul&gt;&lt;li&gt;Order (Aggregate Root)&lt;/li&gt;&lt;li&gt;Item&lt;/li&gt;&lt;/ul&gt;" style="rounded=0;whiteSpace=wrap;html=1;align=left;" parent="65udlxbwhHrKZSYzAluk-2" vertex="1">
                    <mxGeometry y="80" width="280" height="320" as="geometry"/>
                </mxCell>
                <mxCell id="65udlxbwhHrKZSYzAluk-7" value="VO's" style="text;html=1;strokeColor=none;fillColor=none;align=center;verticalAlign=middle;whiteSpace=wrap;rounded=0;" parent="65udlxbwhHrKZSYzAluk-2" vertex="1">
                    <mxGeometry x="110" y="400" width="60" height="30" as="geometry"/>
                </mxCell>
                <mxCell id="65udlxbwhHrKZSYzAluk-8" value="Entities" style="text;html=1;strokeColor=none;fillColor=none;align=center;verticalAlign=middle;whiteSpace=wrap;rounded=0;" parent="65udlxbwhHrKZSYzAluk-2" vertex="1">
                    <mxGeometry x="110" y="80" width="60" height="30" as="geometry"/>
                </mxCell>
                <mxCell id="cf1oUK08KHIq11pFxMvD-0" value="Dados de pagamento vem de uma api dentro do bounded contexts de pagamento, que ouvirá webhook do gateway" style="text;html=1;align=center;verticalAlign=middle;resizable=0;points=[];autosize=1;strokeColor=none;fillColor=none;fontColor=#FFFEFE;" parent="65udlxbwhHrKZSYzAluk-1" vertex="1">
                    <mxGeometry x="105" y="660" width="640" height="30" as="geometry"/>
                </mxCell>
            </root>
        </mxGraphModel>
    </diagram>
</mxfile>